# xmcd
# 
# Track frame offsets:
#     150
#     1595
#     16975
#     36670
#     46342
#     54897
#     71972
#     86017
#     98405
#     101987
#     111267
#     132585
#     156797
#     173977
#     179255
#     185087
# 
# Disc length: 2764
# 
# Revision: 5
# Processed by: cddbd v1.5.2PL0 Copyright (c) Steve Scherf et al.
# Submitted via: fre:ac v1.0.31
# 
DISCID=d80aca10
DTITLE=Alan Silvestri - Who Framed Roger Rabbit?
DYEAR=1988
DGENRE=Soundtrack
TTITLE0=Marron Logo
TTITLE1=Maroon Cartoon
TTITLE2=Valiant And Valiant
TTITLE3=The Weasels
TTITLE4=Liszt, Franz - Silvestri, Alan [Arrangement] - Hungarian Rhapsody (Dueling Pianos)
TTITLE5=Judge Doom
TTITLE6=Irving, Amy - Why Don't You Do Right?
TTITLE7=No Justice For Toons
TTITLE8=Friend, Cliff - Franklin, Dave - The Merry-Go-Round Broke Down (Roger's Song)
TTITLE9=Jessica's Theme
TTITLE10=Toontown
TTITLE11=Eddie's Theme
TTITLE12=The Gag Factory
TTITLE13=The Will
TTITLE14=O'Flynn, Charles - Meskill, Jack - Rich, Max - Friend, Cliff - Franklin, Dave - Smile Darn Ya Smile - That's All, Folks!
TTITLE15=End Title
EXTD=
EXTT0=
EXTT1=
EXTT2=
EXTT3=
EXTT4=
EXTT5=
EXTT6=
EXTT7=
EXTT8=
EXTT9=
EXTT10=
EXTT11=
EXTT12=
EXTT13=
EXTT14=
EXTT15=
PLAYORDER=
